# xmcd
#
# Track frame offsets:
#	150
#	15023
#	23444
#	32854
#	43027
#	52673
#	62642
#	74725
#	84684
#	96215
#	109528
#	118455
#
# Disc length: 1693 seconds
#
# Revision: 0
# Processed by: cddbd v1.5.2PL0 Copyright (c) Steve Scherf et al.
# Submitted via: audiograbber 1.83.01
#
DISCID=94069b0c
DTITLE=Elvis Presley - His Hand In Mine
DYEAR=1960
DGENRE=Gospel
TTITLE0=His Hand In Mine
TTITLE1=I'm Gonna Walk Dem Golden Stairs
TTITLE2=In My Father's House
TTITLE3=Milky White Way
TTITLE4=Known Only To Him
TTITLE5=I Believe In The Man In The Sky
TTITLE6=Joshua Fit The Battle
TTITLE7=Jesus Knows What I Need
TTITLE8=Swing Down Sweet Chariot
TTITLE9=Mansion Over The Hilltop
TTITLE10=If We Never Meet Again
TTITLE11=Working On The Building
EXTD=
EXTT0=
EXTT1=
EXTT2=
EXTT3=
EXTT4=
EXTT5=
EXTT6=
EXTT7=
EXTT8=
EXTT9=
EXTT10=
EXTT11=
PLAYORDER=
